<mxfile host="app.diagrams.net" modified="2022-02-22T02:38:58.504Z" agent="5.0 (Macintosh; Intel Mac OS X 10_15_7) AppleWebKit/605.1.15 (KHTML, like Gecko) Version/15.3 Safari/605.1.15" etag="CWGhRZS-ymoluzxvEFp7" version="16.6.1" type="github">
  <diagram id="C5RBs43oDa-KdzZeNtuy" name="Page-1">
    <mxGraphModel dx="1187" dy="845" grid="1" gridSize="10" guides="1" tooltips="1" connect="1" arrows="1" fold="1" page="1" pageScale="1" pageWidth="827" pageHeight="1169" math="0" shadow="0">
      <root>
        <mxCell id="WIyWlLk6GJQsqaUBKTNV-0" />
        <mxCell id="WIyWlLk6GJQsqaUBKTNV-1" parent="WIyWlLk6GJQsqaUBKTNV-0" />
        <mxCell id="tbQzrIfIg7SpHBhNdbe7-2" style="edgeStyle=orthogonalEdgeStyle;rounded=0;orthogonalLoop=1;jettySize=auto;html=1;entryX=0.5;entryY=0;entryDx=0;entryDy=0;" edge="1" parent="WIyWlLk6GJQsqaUBKTNV-1" source="tbQzrIfIg7SpHBhNdbe7-3" target="tbQzrIfIg7SpHBhNdbe7-6">
          <mxGeometry relative="1" as="geometry" />
        </mxCell>
        <mxCell id="tbQzrIfIg7SpHBhNdbe7-3" value="START" style="strokeWidth=2;html=1;shape=mxgraph.flowchart.start_1;whiteSpace=wrap;" vertex="1" parent="WIyWlLk6GJQsqaUBKTNV-1">
          <mxGeometry x="375" y="40" width="100" height="60" as="geometry" />
        </mxCell>
        <mxCell id="tbQzrIfIg7SpHBhNdbe7-4" value="STOP" style="strokeWidth=2;html=1;shape=mxgraph.flowchart.terminator;whiteSpace=wrap;" vertex="1" parent="WIyWlLk6GJQsqaUBKTNV-1">
          <mxGeometry x="375" y="780" width="100" height="60" as="geometry" />
        </mxCell>
        <mxCell id="tbQzrIfIg7SpHBhNdbe7-5" style="edgeStyle=orthogonalEdgeStyle;rounded=0;orthogonalLoop=1;jettySize=auto;html=1;entryX=0.5;entryY=0;entryDx=0;entryDy=0;" edge="1" parent="WIyWlLk6GJQsqaUBKTNV-1" source="tbQzrIfIg7SpHBhNdbe7-6" target="tbQzrIfIg7SpHBhNdbe7-8">
          <mxGeometry relative="1" as="geometry" />
        </mxCell>
        <mxCell id="tbQzrIfIg7SpHBhNdbe7-6" value="OUTPUT&lt;br&gt;&quot;Please enter a&amp;nbsp;&lt;br&gt;positive whole number&lt;br&gt;greater than 0&quot;" style="shape=parallelogram;perimeter=parallelogramPerimeter;whiteSpace=wrap;html=1;fixedSize=1;" vertex="1" parent="WIyWlLk6GJQsqaUBKTNV-1">
          <mxGeometry x="350" y="140" width="150" height="80" as="geometry" />
        </mxCell>
        <mxCell id="tbQzrIfIg7SpHBhNdbe7-7" style="edgeStyle=orthogonalEdgeStyle;rounded=0;orthogonalLoop=1;jettySize=auto;html=1;entryX=0.5;entryY=0;entryDx=0;entryDy=0;" edge="1" parent="WIyWlLk6GJQsqaUBKTNV-1" source="tbQzrIfIg7SpHBhNdbe7-8" target="tbQzrIfIg7SpHBhNdbe7-10">
          <mxGeometry relative="1" as="geometry" />
        </mxCell>
        <mxCell id="tbQzrIfIg7SpHBhNdbe7-8" value="INPUT&lt;br&gt;n" style="shape=parallelogram;perimeter=parallelogramPerimeter;whiteSpace=wrap;html=1;fixedSize=1;" vertex="1" parent="WIyWlLk6GJQsqaUBKTNV-1">
          <mxGeometry x="350" y="260" width="150" height="80" as="geometry" />
        </mxCell>
        <mxCell id="tbQzrIfIg7SpHBhNdbe7-9" style="edgeStyle=orthogonalEdgeStyle;rounded=0;orthogonalLoop=1;jettySize=auto;html=1;exitX=0.5;exitY=1;exitDx=0;exitDy=0;entryX=0.5;entryY=0;entryDx=0;entryDy=0;entryPerimeter=0;" edge="1" parent="WIyWlLk6GJQsqaUBKTNV-1" source="tbQzrIfIg7SpHBhNdbe7-10" target="tbQzrIfIg7SpHBhNdbe7-14">
          <mxGeometry relative="1" as="geometry" />
        </mxCell>
        <mxCell id="tbQzrIfIg7SpHBhNdbe7-10" value="count = 0&lt;br&gt;total = 0" style="rounded=0;whiteSpace=wrap;html=1;" vertex="1" parent="WIyWlLk6GJQsqaUBKTNV-1">
          <mxGeometry x="365" y="380" width="120" height="40" as="geometry" />
        </mxCell>
        <mxCell id="tbQzrIfIg7SpHBhNdbe7-11" style="edgeStyle=orthogonalEdgeStyle;rounded=0;orthogonalLoop=1;jettySize=auto;html=1;exitX=0.5;exitY=1;exitDx=0;exitDy=0;" edge="1" parent="WIyWlLk6GJQsqaUBKTNV-1" source="tbQzrIfIg7SpHBhNdbe7-10" target="tbQzrIfIg7SpHBhNdbe7-10">
          <mxGeometry relative="1" as="geometry" />
        </mxCell>
        <mxCell id="tbQzrIfIg7SpHBhNdbe7-13" style="edgeStyle=orthogonalEdgeStyle;rounded=0;orthogonalLoop=1;jettySize=auto;html=1;" edge="1" parent="WIyWlLk6GJQsqaUBKTNV-1" source="tbQzrIfIg7SpHBhNdbe7-14" target="tbQzrIfIg7SpHBhNdbe7-17">
          <mxGeometry relative="1" as="geometry" />
        </mxCell>
        <mxCell id="tbQzrIfIg7SpHBhNdbe7-26" style="edgeStyle=orthogonalEdgeStyle;rounded=0;orthogonalLoop=1;jettySize=auto;html=1;entryX=0.5;entryY=0;entryDx=0;entryDy=0;" edge="1" parent="WIyWlLk6GJQsqaUBKTNV-1" source="tbQzrIfIg7SpHBhNdbe7-14" target="tbQzrIfIg7SpHBhNdbe7-22">
          <mxGeometry relative="1" as="geometry" />
        </mxCell>
        <mxCell id="tbQzrIfIg7SpHBhNdbe7-14" value="if count == n" style="strokeWidth=2;html=1;shape=mxgraph.flowchart.decision;whiteSpace=wrap;" vertex="1" parent="WIyWlLk6GJQsqaUBKTNV-1">
          <mxGeometry x="365" y="480" width="120" height="120" as="geometry" />
        </mxCell>
        <mxCell id="tbQzrIfIg7SpHBhNdbe7-21" style="edgeStyle=orthogonalEdgeStyle;rounded=0;orthogonalLoop=1;jettySize=auto;html=1;" edge="1" parent="WIyWlLk6GJQsqaUBKTNV-1" source="tbQzrIfIg7SpHBhNdbe7-17">
          <mxGeometry relative="1" as="geometry">
            <mxPoint x="430" y="450" as="targetPoint" />
            <Array as="points">
              <mxPoint x="610" y="450" />
            </Array>
          </mxGeometry>
        </mxCell>
        <mxCell id="tbQzrIfIg7SpHBhNdbe7-17" value="count = count + 1&lt;br&gt;total = total + count" style="rounded=0;whiteSpace=wrap;html=1;" vertex="1" parent="WIyWlLk6GJQsqaUBKTNV-1">
          <mxGeometry x="550" y="520" width="120" height="40" as="geometry" />
        </mxCell>
        <mxCell id="tbQzrIfIg7SpHBhNdbe7-18" value="false" style="text;html=1;align=center;verticalAlign=middle;resizable=0;points=[];autosize=1;strokeColor=none;fillColor=none;" vertex="1" parent="WIyWlLk6GJQsqaUBKTNV-1">
          <mxGeometry x="485" y="520" width="40" height="20" as="geometry" />
        </mxCell>
        <mxCell id="tbQzrIfIg7SpHBhNdbe7-27" style="edgeStyle=orthogonalEdgeStyle;rounded=0;orthogonalLoop=1;jettySize=auto;html=1;entryX=0.5;entryY=0;entryDx=0;entryDy=0;entryPerimeter=0;" edge="1" parent="WIyWlLk6GJQsqaUBKTNV-1" source="tbQzrIfIg7SpHBhNdbe7-22" target="tbQzrIfIg7SpHBhNdbe7-4">
          <mxGeometry relative="1" as="geometry" />
        </mxCell>
        <mxCell id="tbQzrIfIg7SpHBhNdbe7-22" value="OUTPUT&lt;br&gt;&quot;Total: &quot;, total" style="shape=parallelogram;perimeter=parallelogramPerimeter;whiteSpace=wrap;html=1;fixedSize=1;" vertex="1" parent="WIyWlLk6GJQsqaUBKTNV-1">
          <mxGeometry x="350" y="650" width="150" height="80" as="geometry" />
        </mxCell>
        <mxCell id="tbQzrIfIg7SpHBhNdbe7-28" value="true" style="text;html=1;align=center;verticalAlign=middle;resizable=0;points=[];autosize=1;strokeColor=none;fillColor=none;" vertex="1" parent="WIyWlLk6GJQsqaUBKTNV-1">
          <mxGeometry x="430" y="600" width="40" height="20" as="geometry" />
        </mxCell>
      </root>
    </mxGraphModel>
  </diagram>
</mxfile>
